<?xml version="1.0" standalone="no"?>
<!DOCTYPE svg PUBLIC "-//W3C//DTD SVG 20010904//EN"
 "http://www.w3.org/TR/2001/REC-SVG-20010904/DTD/svg10.dtd">
<svg version="1.0" xmlns="http://www.w3.org/2000/svg"
 width="256.000000pt" height="256.000000pt" viewBox="0 0 256.000000 256.000000"
 preserveAspectRatio="xMidYMid meet">

<g transform="translate(0.000000,256.000000) scale(0.100000,-0.100000)"
fill="#000000" stroke="none">
<path d="M739 1819 c-71 -144 -128 -263 -126 -266 6 -5 129 36 142 48 5 5 37
9 72 9 l63 0 0 -305 0 -305 70 0 70 0 0 -65 0 -65 -225 0 -225 0 0 65 0 65 75
0 75 0 0 225 0 225 -65 0 -65 0 -1 43 c0 40 -4 35 -84 -123 l-84 -165 -1 -200
c0 -110 -5 -217 -10 -237 -24 -87 -105 -135 -208 -125 l-58 5 -67 -134 -67
-134 845 0 845 0 185 370 c199 397 201 405 175 502 -18 63 -75 74 -141 27
l-29 -20 0 -195 0 -194 -80 0 -80 0 0 280 0 280 64 0 c63 0 65 -1 71 -29 l6
-29 43 28 c92 62 206 60 261 -6 l20 -24 178 355 177 355 -845 0 -845 0 -131
-261z m759 -232 c55 -36 89 -92 113 -184 34 -136 20 -313 -35 -421 -64 -127
-209 -166 -326 -88 -96 63 -147 253 -120 446 18 136 64 220 142 259 63 32 168
27 226 -12z"/>
<path d="M1326 1475 c-35 -38 -51 -107 -51 -230 0 -126 16 -203 50 -239 47
-51 111 -20 137 65 20 70 17 293 -5 352 -30 77 -87 100 -131 52z"/>
<path d="M242 825 c-25 -51 -24 -59 2 -49 18 7 29 41 24 74 -2 19 -7 14 -26
-25z"/>
</g>
</svg>
